
<svg version="1.0" xmlns="http://www.w3.org/2000/svg"
 width="1920.000000pt" height="1080.000000pt" viewBox="0 0 1920.000000 1080.000000"
 preserveAspectRatio="xMidYMid meet">

 <style>
path{
    fill: black;
}
@media (prefers-color-scheme: dark) {
    path {
    fill: white;
    }
}
</style>

<g transform="translate(0.000000,1080.000000) scale(0.100000,-0.100000)"
fill="#000000" stroke="none">
<path d="M6858 8194 c-10 -10 27 -40 97 -80 38 -20 94 -59 125 -85 64 -53 81
-90 55 -119 -16 -18 -19 -17 -78 17 -34 20 -71 44 -82 54 -29 26 -118 73 -243
130 -23 10 -60 22 -82 25 -22 4 -43 11 -46 15 -7 12 -108 11 -160 -1 -34 -8
-48 -6 -80 10 -47 24 -212 28 -264 7 l-32 -14 54 -6 c29 -4 76 -7 103 -7 28 0
63 -7 79 -15 15 -8 38 -15 49 -15 20 0 77 -23 142 -57 104 -54 125 -66 136
-79 6 -8 16 -14 21 -14 16 0 139 -103 222 -186 71 -71 164 -182 206 -244 8
-13 25 -35 38 -50 12 -15 22 -33 22 -39 0 -6 4 -11 9 -11 5 0 14 -13 21 -30 7
-16 16 -30 21 -30 4 0 11 -10 15 -22 3 -13 12 -29 18 -37 25 -31 116 -205 201
-386 18 -38 49 -104 69 -145 20 -41 36 -80 36 -86 0 -6 9 -21 20 -34 11 -13
20 -29 20 -36 0 -12 22 -63 56 -126 8 -14 14 -33 14 -42 0 -9 18 -34 39 -56
26 -27 42 -54 46 -79 7 -43 -11 -300 -27 -371 -5 -25 -14 -99 -19 -165 -5 -66
-14 -150 -19 -187 -5 -37 -14 -122 -20 -190 -6 -68 -15 -143 -20 -168 -6 -25
-15 -101 -20 -170 -6 -69 -19 -199 -30 -290 -11 -91 -24 -210 -30 -265 -6 -55
-20 -170 -30 -255 -11 -85 -22 -175 -24 -200 -8 -104 -30 -219 -52 -284 -28
-80 -65 -131 -145 -201 -82 -71 -82 -81 0 -89 105 -9 519 -7 526 4 3 5 -15 32
-40 60 -24 27 -51 63 -60 80 -22 42 -20 260 4 490 23 216 39 409 51 608 5 79
15 189 24 245 8 56 17 153 21 215 3 62 12 145 20 185 7 40 16 128 19 197 16
300 31 489 47 565 5 28 14 113 19 190 4 77 15 167 23 200 9 33 18 77 22 98 3
21 15 47 27 59 l20 20 29 -28 c16 -15 29 -32 29 -37 0 -6 34 -78 75 -162 41
-83 75 -154 75 -157 0 -4 22 -53 50 -111 27 -58 52 -116 56 -130 3 -15 12 -31
20 -38 8 -6 14 -16 14 -21 0 -5 41 -92 90 -192 50 -101 90 -186 90 -190 0 -4
18 -45 40 -92 22 -47 40 -88 40 -91 0 -4 6 -14 13 -22 7 -9 26 -45 42 -81 59
-135 89 -199 161 -345 41 -83 74 -155 74 -161 0 -6 16 -41 35 -77 19 -36 35
-75 35 -85 0 -11 8 -30 19 -43 10 -13 26 -42 35 -64 10 -22 26 -58 36 -80 10
-22 25 -58 35 -80 37 -88 81 -182 214 -456 33 -69 61 -131 61 -136 0 -6 16
-43 35 -82 19 -39 35 -74 35 -79 0 -4 16 -40 35 -79 19 -39 35 -75 35 -80 0
-4 13 -23 29 -42 l29 -35 6 35 c9 45 74 255 93 299 8 19 21 49 29 65 7 17 23
54 34 84 12 30 33 80 47 110 14 31 33 74 43 96 10 22 32 69 48 105 16 36 39
88 51 115 12 28 28 62 37 77 8 15 26 58 40 95 14 37 36 87 49 110 13 23 29 59
35 80 7 21 16 43 20 48 4 6 20 39 34 75 35 84 46 109 90 200 20 42 36 79 36
84 0 4 16 42 36 84 20 42 45 97 55 122 11 25 28 61 38 80 10 19 22 49 25 67 4
17 14 37 22 44 8 6 14 17 14 23 0 7 9 30 19 52 10 21 37 78 59 126 23 47 46
89 51 93 6 3 11 17 11 30 0 14 9 39 20 57 11 18 20 40 20 49 0 9 7 22 15 29 8
7 15 18 15 26 0 7 16 46 35 87 19 41 35 80 35 88 0 8 16 43 35 77 18 35 37 77
40 92 3 16 13 34 21 41 8 6 14 18 14 27 0 8 6 23 13 31 7 9 26 49 42 89 16 40
32 75 37 78 4 3 8 13 8 22 0 9 18 54 40 100 22 46 40 85 40 87 0 2 5 16 10 30
9 23 13 25 25 15 22 -18 37 -83 46 -200 4 -58 12 -123 18 -145 5 -22 15 -78
20 -125 6 -47 15 -110 20 -140 5 -30 15 -98 21 -150 21 -183 38 -299 44 -308
3 -6 11 -68 17 -138 6 -71 16 -138 21 -148 6 -11 14 -76 18 -145 3 -69 12
-135 18 -146 6 -11 16 -75 21 -142 6 -67 15 -131 21 -142 5 -11 10 -46 11 -78
0 -32 5 -83 10 -113 10 -57 22 -158 35 -293 6 -63 4 -81 -7 -88 -43 -27 -105
11 -114 69 -3 20 -12 60 -20 87 -7 28 -16 79 -20 115 -4 36 -13 87 -21 114 -8
27 -14 68 -14 91 0 23 -6 64 -14 91 -8 27 -17 78 -20 114 -4 36 -13 92 -21
125 -7 33 -18 96 -24 140 -26 194 -32 234 -46 300 -8 39 -17 106 -21 150 -4
44 -11 91 -16 105 -5 14 -14 66 -19 115 -5 50 -14 104 -19 120 -5 17 -14 68
-20 115 -12 109 -29 199 -39 218 -6 11 -13 5 -29 -23 -12 -20 -22 -42 -22 -48
0 -7 -12 -34 -25 -62 -14 -27 -25 -56 -25 -62 0 -7 -4 -13 -10 -13 -5 0 -10
-7 -10 -16 0 -9 -9 -33 -19 -53 -30 -55 -61 -128 -61 -143 0 -8 -7 -24 -16
-36 -17 -25 -16 -121 5 -249 22 -143 32 -219 41 -313 5 -52 14 -111 20 -130 5
-19 17 -98 25 -175 14 -132 35 -287 69 -525 9 -58 20 -141 26 -185 6 -44 16
-111 21 -150 5 -38 14 -104 20 -145 12 -91 34 -201 60 -295 10 -38 19 -81 19
-95 0 -15 5 -31 11 -37 5 -5 16 -32 24 -59 61 -220 214 -498 385 -704 71 -85
206 -211 272 -254 18 -12 43 -29 57 -38 14 -10 40 -24 56 -33 17 -8 55 -29 85
-45 30 -16 62 -30 71 -30 9 0 22 -7 29 -15 7 -8 23 -15 36 -15 13 0 46 -9 74
-20 28 -11 65 -20 81 -20 17 0 43 -6 57 -14 24 -13 90 -22 304 -42 61 -6 66
-5 64 12 -2 13 -15 22 -42 27 -21 5 -68 17 -104 28 -36 11 -69 19 -73 19 -17
0 -244 115 -291 148 -142 99 -305 250 -362 335 -16 23 -35 49 -44 58 -18 19
-36 45 -53 76 -7 12 -33 57 -58 100 -25 43 -53 96 -63 118 -10 22 -27 57 -37
78 -10 21 -19 43 -19 50 0 7 -9 29 -20 50 -11 20 -20 48 -20 61 0 14 -4 27 -9
31 -5 3 -15 31 -21 63 -7 31 -16 62 -20 67 -5 6 -11 28 -15 50 -3 22 -12 63
-20 90 -20 70 -55 295 -55 352 0 60 9 74 48 75 35 1 62 -16 62 -41 1 -9 7 -34
15 -56 8 -22 20 -80 25 -129 6 -49 15 -94 19 -100 5 -6 12 -33 16 -61 8 -58
69 -253 96 -306 11 -20 19 -43 19 -51 0 -9 16 -45 35 -82 19 -37 35 -73 35
-81 0 -7 7 -18 15 -25 8 -7 15 -19 15 -27 0 -8 9 -26 20 -40 11 -14 20 -34 20
-44 0 -9 4 -19 9 -21 4 -1 31 -34 60 -73 67 -92 57 -80 130 -169 35 -43 87
-99 114 -125 28 -25 57 -53 66 -61 27 -26 109 -90 115 -90 4 0 28 -15 54 -34
27 -18 59 -37 71 -41 13 -4 44 -20 69 -36 25 -16 52 -29 59 -29 8 0 31 -9 53
-20 22 -11 52 -20 67 -20 15 0 52 -9 81 -20 29 -11 67 -20 86 -20 18 0 53 -7
76 -15 46 -16 343 -20 390 -5 14 4 21 9 15 9 -5 1 -50 6 -100 10 -104 11 -269
62 -390 122 -122 61 -147 77 -293 193 -100 79 -149 130 -250 261 -27 36 -125
191 -132 211 -5 13 -36 79 -69 146 -32 68 -66 149 -75 180 -9 31 -25 78 -37
104 -18 43 -57 212 -74 321 -4 24 -11 45 -16 49 -5 3 -9 25 -9 49 0 24 -6 77
-14 118 -8 41 -18 108 -22 148 -3 41 -12 92 -19 114 -7 22 -16 78 -19 125 -4
47 -13 110 -20 140 -8 30 -17 82 -21 114 -4 33 -11 66 -15 75 -5 9 -16 72 -24
141 -22 176 -36 261 -46 280 -5 10 -14 68 -20 131 -6 63 -13 120 -16 128 -2 7
-11 55 -19 105 -8 50 -21 132 -30 181 -8 50 -15 111 -15 137 0 26 -4 50 -10
53 -5 3 -10 20 -10 37 0 16 -9 85 -19 152 -38 236 -42 262 -56 361 -7 55 -21
127 -29 160 -9 32 -16 76 -16 97 0 21 -4 57 -10 80 -5 24 -17 93 -26 153 -9
61 -22 151 -30 200 -8 50 -21 139 -29 199 -17 123 -22 137 -42 110 -34 -46
-213 -432 -213 -459 0 -7 -6 -18 -14 -24 -8 -7 -17 -23 -21 -38 -3 -14 -21
-56 -40 -94 -18 -37 -36 -78 -41 -91 -4 -13 -22 -57 -41 -98 -19 -41 -42 -91
-50 -110 -9 -19 -20 -42 -25 -50 -4 -8 -13 -26 -19 -40 -6 -14 -15 -32 -20
-40 -5 -8 -14 -26 -19 -40 -6 -14 -16 -36 -24 -50 -7 -14 -16 -38 -20 -55 -4
-16 -21 -61 -38 -100 -16 -38 -39 -90 -50 -115 -10 -25 -23 -52 -29 -60 -5 -8
-14 -26 -19 -40 -6 -14 -17 -37 -25 -52 -8 -14 -15 -33 -15 -41 0 -8 -7 -20
-15 -27 -8 -7 -15 -19 -15 -27 0 -8 -22 -61 -48 -116 -27 -56 -54 -118 -61
-137 -7 -19 -28 -66 -46 -105 -54 -114 -105 -225 -105 -231 0 -2 -16 -36 -35
-75 -19 -39 -35 -77 -35 -84 0 -7 -6 -18 -14 -24 -8 -7 -17 -24 -21 -39 -3
-15 -22 -60 -41 -100 -19 -40 -34 -76 -34 -81 0 -4 -15 -37 -34 -73 -19 -36
-37 -79 -41 -97 -3 -17 -11 -31 -16 -31 -5 0 -9 -5 -9 -12 0 -11 -17 -51 -60
-143 -10 -22 -30 -65 -44 -95 -13 -30 -45 -99 -70 -152 -25 -53 -46 -102 -46
-108 0 -7 -17 -49 -39 -93 -21 -45 -41 -90 -45 -99 -3 -10 -12 -18 -20 -18
-17 0 -46 26 -46 41 0 10 -12 36 -86 197 -19 40 -34 77 -34 82 0 5 -12 31 -27
57 -32 59 -26 47 -112 223 -39 80 -71 150 -71 155 0 8 -81 179 -121 255 -29
56 -111 232 -143 310 -15 36 -34 76 -41 90 -33 62 -97 196 -142 300 -26 59
-58 129 -128 275 -37 77 -79 172 -95 210 -15 39 -52 120 -80 180 -93 197 -108
229 -158 345 -45 104 -85 191 -182 395 -75 156 -220 388 -295 469 -6 6 -40 43
-75 81 -101 110 -205 200 -326 281 -62 41 -115 74 -118 74 -3 0 -37 15 -75 34
-92 45 -230 76 -335 76 -46 0 -85 -3 -88 -6z m817 -830 c38 -25 116 -148 122
-193 15 -111 -46 -164 -90 -78 -9 17 -21 39 -26 47 -36 62 -110 223 -106 231
10 15 73 10 100 -7z"/>
<path d="M10736 7557 c-14 -25 -26 -52 -26 -59 0 -8 -4 -18 -9 -23 -5 -6 -30
-59 -56 -120 -70 -162 -70 -163 -109 -247 -20 -42 -36 -79 -36 -82 0 -3 -18
-44 -41 -93 -22 -48 -56 -122 -75 -163 -19 -41 -41 -88 -49 -103 -8 -16 -15
-33 -15 -37 0 -5 -22 -56 -49 -112 -27 -57 -65 -141 -85 -187 -21 -47 -49
-110 -63 -140 -14 -31 -31 -69 -38 -86 -8 -16 -32 -70 -54 -118 -23 -49 -41
-91 -41 -94 0 -4 -16 -39 -35 -80 -19 -41 -35 -77 -35 -81 0 -4 -16 -38 -35
-76 -19 -39 -35 -73 -35 -77 0 -4 -18 -47 -41 -96 -43 -93 -75 -165 -89 -198
-5 -11 -17 -40 -28 -65 -11 -25 -30 -67 -42 -95 -45 -104 -75 -170 -165 -360
-47 -99 -51 -157 -16 -230 13 -27 25 -51 27 -53 5 -7 44 19 44 30 0 12 9 33
79 180 22 48 41 90 41 94 0 4 16 40 35 81 19 41 35 78 35 83 0 5 9 24 20 42
11 18 20 40 20 49 0 9 7 22 15 29 8 7 15 19 15 27 0 9 16 50 36 92 19 42 43
94 53 116 40 90 63 142 77 173 8 17 20 47 28 65 8 17 26 58 40 89 14 31 26 59
26 62 0 3 16 41 36 83 20 43 44 96 54 118 10 22 32 70 49 108 17 37 31 69 31
72 0 3 16 40 35 81 19 41 35 77 35 80 0 3 18 43 40 90 22 47 40 91 40 98 0 6
4 16 9 21 5 6 32 62 59 126 28 63 58 129 67 145 8 16 15 37 15 47 0 24 48 46
60 28 4 -7 11 -54 15 -105 7 -93 36 -183 55 -171 5 3 10 13 10 21 0 8 9 31 20
51 11 21 20 43 20 49 0 6 7 17 15 24 8 7 15 23 15 35 0 12 7 28 15 35 8 7 15
18 15 24 0 7 9 28 19 49 10 20 22 49 26 64 3 16 14 36 23 47 22 24 21 191 -2
288 -8 37 -18 104 -22 150 -4 46 -13 100 -20 122 -8 21 -14 53 -14 70 0 57
-15 62 -44 13z"/>
<path d="M8001 6368 c-13 -34 -29 -176 -36 -313 -3 -66 -11 -148 -17 -182 -9
-47 -9 -68 0 -85 6 -13 16 -34 22 -48 5 -14 14 -32 19 -40 5 -8 28 -55 51
-105 23 -49 58 -124 77 -165 20 -41 44 -93 54 -115 62 -137 95 -208 125 -269
19 -37 34 -76 34 -86 0 -10 6 -23 14 -29 8 -7 18 -25 21 -41 3 -16 13 -34 21
-41 8 -6 14 -22 14 -34 0 -12 7 -28 15 -35 8 -7 15 -17 15 -23 0 -5 9 -28 19
-51 11 -23 38 -81 61 -131 23 -49 57 -121 75 -160 18 -38 42 -90 53 -115 26
-58 85 -186 128 -276 19 -39 34 -74 34 -78 0 -4 22 -53 49 -109 27 -56 52
-114 56 -129 4 -15 13 -32 21 -39 8 -6 14 -18 14 -26 0 -9 9 -32 19 -52 31
-58 61 -126 61 -138 0 -6 6 -16 14 -23 8 -6 16 -21 18 -33 2 -12 8 -20 13 -18
13 5 41 80 50 132 4 22 13 53 21 67 8 15 14 31 14 37 0 15 40 119 90 232 l23
51 -22 35 c-11 19 -21 41 -21 49 0 8 -11 27 -23 42 l-24 27 -17 -26 c-14 -21
-20 -24 -31 -15 -15 12 -85 151 -85 168 0 5 -7 15 -15 22 -8 7 -15 19 -15 27
0 7 -25 66 -56 131 -30 64 -65 137 -76 162 -12 25 -25 52 -30 60 -4 8 -11 22
-14 30 -3 8 -17 39 -31 69 -13 29 -40 88 -59 130 -43 94 -54 117 -98 211 -19
41 -51 111 -71 155 -21 44 -52 112 -70 150 -18 39 -44 95 -58 125 -14 30 -42
91 -62 135 -20 44 -46 100 -57 125 -11 25 -36 77 -54 115 -19 39 -34 75 -34
81 0 7 -7 17 -15 24 -8 7 -15 20 -15 28 0 9 -16 50 -36 92 -20 41 -46 95 -57
120 -11 25 -24 52 -29 60 -4 8 -11 22 -14 30 -3 8 -14 32 -24 52 -11 20 -20
44 -20 52 0 25 -20 28 -29 4z"/>
</g>
</svg>
